<svg xmlns="http://www.w3.org/2000/svg" viewBox="0 0 32 32">
	<g fill="currentColor">
		<path d="M22.568 14.838h2.41c.28 0 .5.22.51.49c0 4.62-3.76 8.37-8.37 8.37h-2.23c-4.62 0-8.37-3.76-8.37-8.37c0-.27.22-.49.49-.49h2.39v-1.69h-2.41a.49.49 0 0 1-.49-.49c0-4.62 3.76-8.37 8.37-8.37h2.23c4.62 0 8.37 3.76 8.37 8.37c0 .27-.22.49-.49.49h-2.41zm-5.46-9.56h-2.23c-3.9 0-7.1 3.04-7.36 6.88h6.87v-4.4c-1.26.13-2.42.74-3.24 1.69h1.74c.27 0 .48.23.48.5s-.22.49-.49.49h-2.69c-.18 0-.34-.1-.43-.25a.48.48 0 0 1 0-.49a5.95 5.95 0 0 1 5.12-2.95c.27 0 .49.22.49.49v1.47h1.24v-1.47c0-.27.22-.49.49-.49c2.11 0 4.07 1.13 5.12 2.95c.09.15.09.34 0 .49c-.09.16-.25.25-.43.25h-2.69a.49.49 0 0 1 0-.98h1.74a4.96 4.96 0 0 0-3.24-1.69v4.4h6.87c-.25-3.84-3.46-6.89-7.36-6.89m-2.23 7.87h-4.48v1.68h4.48c.27 0 .49.22.49.49v2.95h1.24v-2.95c0-.27.22-.49.49-.49h4.48v-1.69h-4.48a.49.49 0 0 1-.49-.49v-2.95h-1.24v2.96c0 .27-.22.49-.49.49m0 9.57h2.23c3.9 0 7.1-3.05 7.36-6.89h-6.87v4.4c1.26-.13 2.42-.74 3.24-1.69h-1.74a.49.49 0 0 1 0-.98h2.69c.18 0 .34.1.43.25s.09.34 0 .49a5.95 5.95 0 0 1-5.12 2.95a.49.49 0 0 1-.49-.49v-1.47h-1.24v1.47c0 .27-.22.49-.49.49c-2.11 0-4.07-1.13-5.12-2.95a.48.48 0 0 1 0-.49c.09-.16.25-.25.43-.25h2.7a.49.49 0 0 1 0 .98h-1.74c.82.95 1.98 1.56 3.24 1.69v-4.4h-6.87c.25 3.84 3.46 6.89 7.36 6.89" />
		<path d="M3.121 17.44a5.6 5.6 0 0 0 1.125 1.98c-.103.656-.203 1.302-.038 1.908c.168.636.597 1.163 1.022 1.685c.257.316.512.63.708.965c.199.345.348.732.498 1.12c.24.624.481 1.25.932 1.7c.452.452 1.077.693 1.704.935c.384.148.77.297 1.116.495c.335.196.65.45.966.707c.522.422 1.049.848 1.684 1.023c.6.159 1.249.06 1.908-.042c.416-.064.837-.128 1.252-.128c.412 0 .83.065 1.244.13c.658.104 1.308.206 1.916.04c.636-.169 1.163-.598 1.685-1.023c.316-.256.63-.512.965-.707c.345-.2.732-.349 1.12-.498c.624-.241 1.25-.482 1.7-.932c.452-.453.693-1.078.935-1.704c.148-.385.297-.77.495-1.116c.196-.336.45-.65.707-.967c.422-.522.848-1.048 1.023-1.683c.152-.602.052-1.248-.049-1.9a5.6 5.6 0 0 0 1.136-1.99a5.7 5.7 0 0 0-.027-2.338a7.4 7.4 0 0 1-.12-1.1q.018-.556.119-1.103a5.55 5.55 0 0 0 .018-2.338a5.6 5.6 0 0 0-1.216-2.076a7 7 0 0 1-.628-.853a7 7 0 0 1-.439-1a5.6 5.6 0 0 0-1.164-2.06a5.6 5.6 0 0 0-2.06-1.168a7 7 0 0 1-1-.441a7 7 0 0 1-.85-.625a5.6 5.6 0 0 0-2.068-1.214a5.55 5.55 0 0 0-2.348.017a6.7 6.7 0 0 1-2.2 0a5.55 5.55 0 0 0-2.338-.018a5.6 5.6 0 0 0-2.075 1.215q-.402.345-.851.625q-.48.256-.994.439a5.7 5.7 0 0 0-2.063 1.17A5.7 5.7 0 0 0 5.4 6.634a7.4 7.4 0 0 1-.438.993q-.284.451-.63.856a5.6 5.6 0 0 0-1.209 2.061a5.6 5.6 0 0 0 .016 2.356q.1.545.119 1.1q-.019.555-.119 1.1a5.55 5.55 0 0 0-.018 2.34M16 24.737q-.714.017-1.417.144a4 4 0 0 1-1.524.059a4 4 0 0 1-1.324-.834a8.6 8.6 0 0 0-1.106-.8a9 9 0 0 0-1.28-.577a4.1 4.1 0 0 1-1.366-.716a4.1 4.1 0 0 1-.716-1.367a9 9 0 0 0-.576-1.278a9 9 0 0 0-.8-1.107a4 4 0 0 1-.838-1.334a4 4 0 0 1 .062-1.515q.128-.7.143-1.412a9 9 0 0 0-.143-1.414a4 4 0 0 1-.061-1.534a4 4 0 0 1 .83-1.31q.45-.526.809-1.117a9 9 0 0 0 .571-1.27a4.1 4.1 0 0 1 .72-1.371a4.1 4.1 0 0 1 1.371-.72a9 9 0 0 0 1.271-.572a8.5 8.5 0 0 0 1.11-.8a4 4 0 0 1 1.334-.837a4 4 0 0 1 1.514.062a9.6 9.6 0 0 0 2.814 0a4 4 0 0 1 1.526-.061c.492.19.942.473 1.324.836q.521.443 1.105.8q.617.34 1.28.577c.497.149.961.392 1.367.716c.327.405.574.87.726 1.367q.238.66.574 1.276q.356.586.8 1.109c.363.386.646.84.833 1.336a4 4 0 0 1-.063 1.514A9 9 0 0 0 26.728 14q.017.712.146 1.413c.118.5.14 1.016.067 1.524a4 4 0 0 1-.835 1.324a9 9 0 0 0-.8 1.105c-.226.41-.42.84-.577 1.281a4.1 4.1 0 0 1-.716 1.366c-.406.323-.87.566-1.366.716q-.661.236-1.278.575q-.585.357-1.108.8c-.385.365-.839.65-1.335.838a4 4 0 0 1-1.515-.062A9 9 0 0 0 16 24.737" />
	</g>
</svg>
